<svg fill="none" height="255" viewBox="0 0 681 255" width="681" xmlns="http://www.w3.org/2000/svg" xmlns:xlink="http://www.w3.org/1999/xlink"><clipPath id="a"><path d="m0 0h676.338v255h-676.338z"/></clipPath><g clip-path="url(#a)"><path d="m624.437 70.5117h7.84v21.0804h4.911v-21.0804h7.868v-4.4765h-20.619z" fill="#2e2e68"/><path d="m670.884 66.0352-8.275 16.1426-8.275-15.9527-.081-.1899h-5.453v25.5569h4.585v-17.472l7.542 14.6776.109.1899h3.093l7.596-14.8675.027 17.472h4.585v-25.5569z" fill="#2e2e68"/><path d="m355.275 187.095c5.798 0 10.499-4.701 10.499-10.5s-4.701-10.499-10.499-10.499c-5.799 0-10.5 4.7-10.5 10.499s4.701 10.5 10.5 10.5z" fill="#dce583"/><path d="m404.435 240.786c6.907 0 12.507-5.6 12.507-12.507 0-6.908-5.6-12.508-12.507-12.508-6.908 0-12.507 5.6-12.507 12.508 0 6.907 5.599 12.507 12.507 12.507z" fill="#bddb82"/><path d="m477.444 255.026c8.016 0 14.514-6.499 14.514-14.515s-6.498-14.515-14.514-14.515c-8.017 0-14.515 6.499-14.515 14.515s6.498 14.515 14.515 14.515z" fill="#89d3a0"/><path d="m540.793 224.154c9.125 0 16.522-7.397 16.522-16.522s-7.397-16.523-16.522-16.523-16.522 7.398-16.522 16.523 7.397 16.522 16.522 16.522z" fill="#73cacb"/><path d="m558.754 91.2143c11.342 0 20.537-9.1951 20.537-20.5378s-9.195-20.5378-20.537-20.5378c-11.343 0-20.538 9.1951-20.538 20.5378s9.195 20.5378 20.538 20.5378z" fill="#6fb6d7"/><path d="m505.958 45.091c12.451 0 22.545-10.094 22.545-22.5455s-10.094-22.5455-22.545-22.5455c-12.452 0-22.546 10.094-22.546 22.5455s10.094 22.5455 22.546 22.5455z" fill="#6b91dd"/><path d="m584.229 139.342c-.543-5.29-5.019-6.864-5.236-6.918l.868-2.686c.271.082 6.403 2.144 7.162 9.306z" fill="#2e2e68"/><path d="m359.968 167.204c-1.221-.597-2.577-1.004-4.015-1.085-5.779-.38-10.771 3.988-11.151 9.794-.163 2.469.57 4.775 1.899 6.647 1.954-1.194 3.771-2.55 5.426-4.097 3.364-3.12 5.969-6.891 7.841-11.259z" fill="#bcb953"/><g fill="#2e2e68"><path d="m73.7408 166.745h-37.0874l-5.8331 17.065h-30.8203l41.1299-104.6967h28.1344l42.0257 104.6967h-31.7161zm-18.5573-55.048-11.5305 32.448h23.0339l-11.5305-32.448z"/><path d="m208.2 142.679c0 1.193-.055 2.387-.136 3.581-.109 1.194-.244 2.442-.461 3.744h-59.986c.895 4.694 2.767 8.193 5.616 10.554 2.849 2.333 6.457 3.5 10.852 3.5 3.283 0 6.213-.679 8.736-2.008 2.524-1.329 4.504-3.229 5.915-5.616h27.673c-1.384 4.585-3.446 8.736-6.131 12.48-2.686 3.744-5.861 6.918-9.496 9.496-3.636 2.604-7.732 4.585-12.263 5.968-4.531 1.384-9.36 2.089-14.434 2.089-6.294 0-12.1-1.112-17.417-3.282-5.345-2.198-9.984-5.209-13.918-9.062-3.934-3.825-7-8.383-9.198-13.62-2.197-5.236-3.282-10.933-3.282-17.119s1.085-11.91 3.282-17.201c2.198-5.29 5.237-9.848 9.116-13.673 3.88-3.826 8.519-6.837 13.918-8.981 5.372-2.143 11.205-3.228 17.499-3.228 6.295 0 12.426 1.112 17.879 3.283 5.426 2.197 10.093 5.182 13.973 8.98 3.879 3.798 6.891 8.247 9.061 13.375 2.144 5.128 3.229 10.69 3.229 16.685zm-44.115-20.484c-4.096 0-7.515 1.058-10.255 3.147s-4.666 5.182-5.752 9.279h32.747c-2.605-8.275-8.166-12.426-16.74-12.426z"/><path d="m228.385 73.875h27.809v109.933h-27.809z"/><path d="m319.923 186.497c-5.968 0-11.422-.896-16.305-2.686-4.884-1.791-9.062-4.314-12.562-7.543-3.499-3.228-6.185-7.162-8.084-11.747-1.9-4.585-2.849-9.713-2.849-15.41v-46.068h27.809v44.874c0 4.287 1.058 7.624 3.147 10.011 2.089 2.388 5.046 3.581 8.817 3.581s6.729-1.193 8.818-3.581c2.089-2.387 3.147-5.724 3.147-10.011v-44.874h27.809v46.068c0 5.697-.95 10.825-2.849 15.41s-4.585 8.492-8.085 11.747c-3.5 3.229-7.678 5.752-12.561 7.543-4.884 1.79-10.31 2.686-16.306 2.686z"/><path d="m478.637 100.65c4.395 0 8.356.787 11.883 2.388 3.527 1.6 6.566 3.825 9.062 6.728s4.449 6.294 5.833 10.255c1.383 3.934 2.089 8.302 2.089 13.077v50.707h-27.809v-47.261c0-8.275-2.984-12.426-8.98-12.426-7.787 0-11.666 5.128-11.666 15.41v44.277h-27.077v-47.261c0-8.275-2.93-12.426-8.817-12.426-7.787 0-11.666 5.128-11.666 15.41v44.277h-27.809v-80.767h19.453l4.042 8.681c2.903-3.391 6.349-6.077 10.391-8.084 4.042-1.981 8.438-2.985 13.24-2.985s9.333 1.058 13.321 3.147 7.271 5.047 9.875 8.818c2.903-3.69 6.457-6.593 10.69-8.763 4.232-2.144 8.899-3.229 13.999-3.229z"/><path d="m617.437 102.876v80.767h-21.379l-2.387-5.697c-3.392 2.686-7.136 4.775-11.205 6.294-4.097 1.492-8.465 2.252-13.159 2.252-6.186 0-11.856-1.085-17.065-3.228-5.182-2.144-9.685-5.128-13.457-8.981-3.798-3.825-6.728-8.41-8.817-13.673-2.089-5.291-3.147-11.07-3.147-17.337s1.058-12.046 3.147-17.282 5.046-9.74 8.817-13.538c3.799-3.798 8.275-6.729 13.457-8.818s10.879-3.147 17.065-3.147c4.775 0 9.252.76 13.376 2.252 4.123 1.492 7.895 3.636 11.286 6.43l2.849-6.294h20.646zm-44.413 58.927c2.605 0 4.992-.461 7.19-1.41 2.197-.95 4.096-2.252 5.697-3.88 1.601-1.655 2.849-3.581 3.744-5.833s1.357-4.667 1.357-7.244-.462-5.019-1.357-7.244c-.895-2.252-2.143-4.178-3.744-5.833s-3.5-2.93-5.697-3.88c-2.198-.949-4.585-1.41-7.19-1.41-5.399 0-9.74 1.736-13.077 5.236s-5.019 7.868-5.019 13.158c0 2.605.461 5.019 1.357 7.244.895 2.252 2.143 4.178 3.744 5.833 1.6 1.655 3.527 2.93 5.751 3.88 2.252.949 4.667 1.41 7.244 1.41z"/></g></g></svg>