<svg version="1.1" id="Layer_1" xmlns="http://www.w3.org/2000/svg" xmlns:xlink="http://www.w3.org/1999/xlink" x="0px" y="0px" viewBox="0 0 341.06 144" style="enable-background:new 0 0 341.06 144;" xml:space="preserve">
 <style type="text/css">
  .st0{fill:#0599C5;}
 </style>
 <g>
  <path class="st0" d="M124.61,87.83l-2.17-6.41h-11.98c-0.33,0.99-0.68,2.07-1.04,3.23l-0.99,3.18h-5.81l10.73-29.71h6.23
		l10.45,29.71H124.61z M116.43,64.58c-0.72,2.02-1.42,3.97-2.08,5.87c-0.66,1.9-1.39,3.91-2.17,6.05h8.54L116.43,64.58z">
  </path>
  <path class="st0" d="M147.46,58.22h-10.93V87.9h5.05V77.79h5.88c5.99,0,8.9-2.52,8.9-7.71v-4.2
		C156.36,60.72,153.45,58.22,147.46,58.22z M141.58,62.89h5.76c3.42,0,3.97,0.9,3.97,3.04v4.16c0,2.1-0.57,3.04-3.97,3.04h-5.76
		V62.89z">
  </path>
  <path class="st0" d="M173.13,58.22H162.2V87.9h5.05V77.79h5.88c5.99,0,8.9-2.52,8.9-7.71v-4.2
		C182.03,60.72,179.12,58.22,173.13,58.22z M167.25,62.89h5.76c3.42,0,3.97,0.9,3.97,3.04v4.16c0,2.1-0.57,3.04-3.97,3.04h-5.76
		V62.89z">
  </path>
  <path class="st0" d="M196.97,84.93h13.71v2.97h-16.7V58.25h2.99V84.93z">
  </path>
  <path class="st0" d="M236.94,79.27c0,4.94-3.07,9-10.73,9c-7.66,0-10.73-4.05-10.73-9V66.71c0-4.94,3.07-9,10.73-9
		c7.66,0,10.73,4.05,10.73,9V79.27z M218.26,79.31c0,4.26,2.6,6.65,8.06,6.65c5.46,0,8.05-2.39,8.05-6.65V66.67
		c0-4.26-2.6-6.65-8.05-6.65c-5.46,0-8.06,2.39-8.06,6.65V79.31z">
  </path>
  <path class="st0" d="M241.49,58.25h2.97l9.59,26.68l9.61-26.68h3.04l-10.66,29.66h-3.94L241.49,58.25z">
  </path>
  <path class="st0" d="M275.9,87.91h-2.99V58.25h2.99V87.91z">
  </path>
  <path class="st0" d="M290.23,61.82v26.09h-2.81V58.25h4.41l12.91,25.38V58.25h2.81v29.66h-3.57L290.23,61.82z">
  </path>
  <g>
   <g>
    <path class="st0" d="M80.22,83.99c-3.71,0-6.73,3.02-6.73,6.73c0,3.71,3.02,6.73,6.73,6.73c3.71,0,6.73-3.02,6.73-6.73
				C86.95,87.02,83.93,83.99,80.22,83.99z M84.2,90.73c0,2.2-1.79,3.98-3.98,3.98c-2.2,0-3.98-1.79-3.98-3.98
				c0-2.2,1.79-3.98,3.98-3.98C82.41,86.75,84.2,88.53,84.2,90.73z">
    </path>
    <path class="st0" d="M34.63,83.99c-3.71,0-6.73,3.02-6.73,6.73c0,3.71,3.02,6.73,6.73,6.73c3.71,0,6.73-3.02,6.73-6.73
				C41.36,87.02,38.34,83.99,34.63,83.99z M38.61,90.73c0,2.2-1.79,3.98-3.98,3.98c-2.2,0-3.98-1.79-3.98-3.98
				c0-2.2,1.79-3.98,3.98-3.98C36.82,86.75,38.61,88.53,38.61,90.73z">
    </path>
    <path class="st0" d="M57.42,47.11c-3.71,0-6.73,3.02-6.73,6.73c0,3.71,3.02,6.73,6.73,6.73c3.71,0,6.73-3.02,6.73-6.73
				C64.15,50.13,61.13,47.11,57.42,47.11z M61.4,53.85c0,2.2-1.79,3.98-3.98,3.98c-2.2,0-3.98-1.79-3.98-3.98
				c0-2.2,1.79-3.98,3.98-3.98C59.62,49.86,61.4,51.65,61.4,53.85z">
    </path>
   </g>
   <path class="st0" d="M77.73,84.74L62.86,57.97l-0.14-0.26l-0.19,0.23c-0.51,0.64-1.14,1.15-1.85,1.54l-0.18,0.1l0.1,0.18
			l13.16,23.7c-4.59-1.03-10.3-1.59-16.15-1.59c-6.45,0-12.18,0.55-16.62,1.58l13.16-23.69l0.1-0.18l-0.18-0.1
			c-0.72-0.38-1.34-0.9-1.85-1.54l-0.19-0.23l-0.14,0.26L37.03,84.74l-0.12,0.21l0.22,0.08c0.73,0.25,1.4,1.16,1.99,1.68l0.1,0.09
			l0.12-0.06l0.05-0.01c4.74-1.31,11.05-2.01,18.23-2.01c6.46,0,12.73,0.71,17.67,2l0.1,0.19l0.19-0.15l0.04-0.03
			c0.6-0.53,1.27-1.44,2-1.69l0.22-0.08L77.73,84.74z">
   </path>
  </g>
 </g>
</svg>