<svg height="50" viewBox="0 0 509.2 100" width="150" xml:space="preserve" xmlns="http://www.w3.org/2000/svg"><path d="M33.7 33.8v-7.5c0-8.2-3.8-11.7-8.1-11.7-6.7 0-8.9 3.5-8.9 10.8v49.3c0 7.3 2.2 10.8 8.9 10.8 6.1 0 8.1-3.5 8.1-9.8V63.9h16.7v11.2c0 13.7-8.1 24.9-24.8 24.9C8.1 100 0 88.8 0 75.1V25C0 11.2 8.1 0 25.6 0c16.7 0 24.8 12.1 24.8 26.7v7.1H33.7zM163 98.7V1.3h16.7V41h17.8V1.3h16.7v97.3h-16.7V55.5h-17.8v43.1H163zm63.8 0V1.3h44.7v14.6h-28V41h21.6v14.6h-21.6v28.6h29.9v14.6h-46.6zm71.9 0H282V1.3h23.5c18.7 0 28.3 8 28.3 28.7 0 15.6-6.1 22-11.7 24.5l14.2 44.1h-17l-11.9-40.3c-2.2.3-5.7.4-8.6.4v40zm0-53.7h5.9c9 0 12.4-3.4 12.4-15s-3.4-15-12.4-15h-5.9v30zm45.1 53.7V1.3h44.7v14.6h-28V41h21.6v14.6h-21.6v28.6h29.9v14.6h-46.6zm56.1 0V1.3h15.5L435.8 57h.3V1.3h15.1v97.3h-14.6l-21.3-60.8h-.3v60.8h-15.1zm76.4-82.8h-16.2V1.3h49.1v14.6H493v82.7h-16.7V15.9zM105.2 0c-27.6 0-50 22.4-50 50s22.4 50 50 50 50-22.4 50-50-22.4-50-50-50zm35 74.1c-3.4 4.9-9.4 7.5-17 7.5.5-1.4 1-2.9 1.4-4.5 5.4-.3 9.7-2.2 12-5.5 2.9-4.2 2.6-10.5-.9-17.5-.2-.4-.4-.9-.7-1.3-6.5 4.9-15.2 9.5-24.1 12.7-5.4 2-10.9 3.6-16 4.6.6 2.8 1.3 5.3 2.1 7.6 2.3 6.5 5.3 10.4 8 10.4 3.5 0 7.7-6.4 10.1-17.5 1.6-.6 3.3-1.3 4.9-2-1 5.4-2.4 10.1-4.1 13.9-3.7 8.2-8 10-10.9 10-3.4 0-8.3-2.3-12.2-13.3-.9-2.5-1.7-5.3-2.3-8.3-3 .4-5.9.7-8.6.7h-.6c-11.2 0-14.9-3.7-16.1-6.9-.8-2.2-.8-5.5 2.2-9.8.8 1.3 1.7 2.7 2.7 4-.9 1.7-1.2 3.1-.8 4.3.9 2.5 5.4 4 11.9 4h.6c2.5 0 5.1-.3 7.9-.7-.8-5.2-1.2-10.8-1.2-16.6 0-9.4 1.3-19 3.6-26.8-.6-.1-1.2-.2-1.8-.2-1.1-.1-2.2-.2-3.2-.2-6.3 0-11 1.9-13.5 5.6-2.9 4.2-2.6 10.4.9 17.5 2.3 4.5 5.9 9.5 10.4 13.7-3.1.3-5.9.2-5.9.2-3.5-3.8-6.4-7.9-8.4-12-4.2-8.5-4.4-16.3-.6-21.9 3.4-4.9 9.4-7.5 17.1-7.5 1.2 0 2.4.1 3.6.2.9.1 1.9.2 2.8.4 2.8-6.9 6.7-11.5 11.6-11.5 5 0 9.4 5 12.4 13.8-1-.6-2-1.1-3-1.7l-3-1.5c-1.9-3.9-4.2-6.3-6.3-6.3-2.4 0-5 2.9-7.2 8 7 1.8 14.2 5.2 21 9.8 6.9 4.8 12.7 10.4 16.9 16.4 3.9-3.7 5.7-7.1 4.9-9.4-.7-2-3.6-3.3-7.9-3.8-1.6-1.6-3.4-3.1-5.2-4.6h1c8.7 0 14.5 2.4 16.1 6.9 1.7 4.6-1.2 9.7-6.6 14.7.4.7.8 1.5 1.2 2.2 4.5 8.8 4.7 16.6.8 22.2zm-23.5-40.8c-6.5-4.5-13.5-7.7-20.1-9.3-2.3 7.1-3.5 16.2-3.5 25.9 0 5.5.4 10.9 1.1 15.8 4.9-1 10-2.5 15.2-4.4 9.2-3.4 17.4-7.7 23.3-12.4-3.9-5.6-9.4-11-16-15.6z"></path></svg>