<svg version="1.1" id="Layer_1" xmlns:x="ns_extend;" xmlns:i="ns_ai;" xmlns:graph="ns_graphs;" xmlns="http://www.w3.org/2000/svg" xmlns:xlink="http://www.w3.org/1999/xlink" x="0px" y="0px" viewBox="0 0 485.3 108" style="enable-background:new 0 0 485.3 108;" xml:space="preserve">
 <style type="text/css">
  .st0{fill-rule:evenodd;clip-rule:evenodd;fill:#2AACE2;}
	.st1{fill-rule:evenodd;clip-rule:evenodd;fill:#3FB4E5;}
	.st2{fill-rule:evenodd;clip-rule:evenodd;fill:#4CB9E7;}
	.st3{fill-rule:evenodd;clip-rule:evenodd;fill:#58BEE9;}
	.st4{fill-rule:evenodd;clip-rule:evenodd;fill:#65C3EB;}
	.st5{fill-rule:evenodd;clip-rule:evenodd;fill:#72C8EC;}
	.st6{fill-rule:evenodd;clip-rule:evenodd;fill:#7FCDEE;}
	.st7{fill-rule:evenodd;clip-rule:evenodd;fill:#8CD2F0;}
	.st8{fill-rule:evenodd;clip-rule:evenodd;fill:#98D7F1;}
	.st9{fill-rule:evenodd;clip-rule:evenodd;fill:#A5DCF3;}
	.st10{fill-rule:evenodd;clip-rule:evenodd;fill:#B2E1F5;}
	.st11{fill-rule:evenodd;clip-rule:evenodd;fill:#BFE6F6;}
	.st12{fill-rule:evenodd;clip-rule:evenodd;fill:#E31837;}
 </style>
 <metadata>
  <sfw xmlns="ns_sfw;">
   <slices>
   </slices>
   <sliceSourceBounds bottomLeftOrigin="true" height="108" width="485.3" x="-245.4" y="191">
   </sliceSourceBounds>
  </sfw>
 </metadata>
 <g>
  <path class="st0" d="M446.8,102.3h-7.1c-1.7,0-2.5,1-2.5,2.9c0,1.8,0.9,2.8,2.5,2.8h27.5c1.7,0,2.6-1,2.6-2.8
		c0-1.8-0.9-2.9-2.6-2.9H446.8z M446.8,102.3">
  </path>
  <path class="st1" d="M408.1,102.3h-6.8c-1.6,0-2.5,1-2.5,2.9c0,1.8,0.9,2.8,2.5,2.8h26.2c1.7,0,2.5-1,2.5-2.8
		c0-1.8-0.8-2.9-2.5-2.9H408.1z M408.1,102.3">
  </path>
  <path class="st2" d="M368.4,102.3h-6.8c-1.7,0-2.4,1-2.4,2.9c0,1.8,0.7,2.8,2.4,2.8h26.3c1.7,0,2.5-1,2.5-2.8
		c0-1.8-0.8-2.9-2.5-2.9H368.4z M368.4,102.3">
  </path>
  <path class="st3" d="M327.3,102.3h-6.8c-1.7,0-2.5,1-2.5,2.9c0,1.8,0.8,2.8,2.5,2.8h26.2c1.7,0,2.5-1,2.5-2.8
		c0-1.8-0.8-2.9-2.5-2.9H327.3z M327.3,102.3">
  </path>
  <path class="st4" d="M287.6,102.3h-6.8c-1.7,0-2.5,1-2.5,2.9c0,1.8,0.8,2.8,2.5,2.8H307c1.7,0,2.5-1,2.5-2.8c0-1.8-0.8-2.9-2.5-2.9
		H287.6z M287.6,102.3">
  </path>
  <path class="st5" d="M248.2,102.3h-7.1c-1.7,0-2.6,1-2.6,2.9c0,1.8,0.9,2.8,2.6,2.8h27.4c1.7,0,2.6-1,2.6-2.8
		c0-1.8-0.9-2.9-2.6-2.9H248.2z M248.2,102.3">
  </path>
  <path class="st6" d="M208,102.3h-6.8c-1.7,0-2.5,1-2.5,2.9c0,1.8,0.8,2.8,2.5,2.8h26.2c1.7,0,2.5-1,2.5-2.8c0-1.8-0.7-2.9-2.5-2.9
		H208z M208,102.3">
  </path>
  <path class="st7" d="M168.3,102.3h-6.8c-1.7,0-2.5,1-2.5,2.9c0,1.8,0.8,2.8,2.5,2.8h26.3c1.6,0,2.4-1,2.4-2.8
		c0-1.8-0.8-2.9-2.4-2.9H168.3z M168.3,102.3">
  </path>
  <path class="st8" d="M128.6,102.3h-6.8c-1.7,0-2.5,1-2.5,2.9c0,1.8,0.8,2.8,2.5,2.8H148c1.7,0,2.5-1,2.5-2.8c0-1.8-0.8-2.9-2.5-2.9
		H128.6z M128.6,102.3">
  </path>
  <path class="st9" d="M88.8,102.3h-6.7c-1.7,0-2.5,1-2.5,2.9c0,1.8,0.8,2.8,2.5,2.8h26.2c1.7,0,2.5-1,2.5-2.8c0-1.8-0.8-2.9-2.5-2.9
		H88.8z M88.8,102.3">
  </path>
  <path class="st10" d="M49.1,102.3h-6.8c-1.7,0-2.5,1-2.5,2.9c0,1.8,0.8,2.8,2.5,2.8h26.2c1.7,0,2.5-1,2.5-2.8
		c0-1.8-0.8-2.9-2.5-2.9H49.1z M49.1,102.3">
  </path>
  <path class="st11" d="M9.3,102.3H2.5c-1.7,0-2.4,1-2.4,2.9c0,1.8,0.7,2.8,2.4,2.8h26.3c1.7,0,2.5-1,2.5-2.8c0-1.8-0.8-2.9-2.5-2.9
		H9.3z M9.3,102.3">
  </path>
  <path class="st12" d="M0.1,21.2h7.4v10c2.5-3.7,5.2-6.3,7.8-8.1c3.7-2.2,7.6-3.5,11.6-3.5c2.7,0,5.3,0.6,7.9,1.6
		c2.4,1,4.5,2.6,6.1,4.4c1.5,1.8,2.9,4.4,4.1,7.8c2.4-4.5,5.5-7.9,9.1-10.3c3.5-2.2,7.6-3.5,11.8-3.5c4,0,7.4,1,10.4,3
		c3,2,5.2,4.8,6.7,8.4c1.5,3.5,2.2,9,2.2,16v31.4h-7.4V47.1c0-6.1-0.5-10.4-1.3-12.7c-0.9-2.3-2.5-4.3-4.5-5.6
		c-2.1-1.4-4.6-2.1-7.5-2.1c-3.6,0-6.7,1.1-9.7,3.2c-2.9,2.1-5.2,5-6.5,8.4c-1.3,3.6-2,9.4-2,17.6v22.5h-7.4V49.1
		c0-7-0.4-11.7-1.2-14.1c-0.9-2.5-2.3-4.5-4.5-5.9c-2.2-1.5-4.9-2.3-7.6-2.2c-3.4,0-6.6,1-9.6,3.1c-2.9,2-5.1,4.8-6.5,8.3
		c-1.4,3.5-2.1,8.8-2.1,16v24.4H0L0.1,21.2L0.1,21.2z M127.1,19.6c8.6,0,15.7,3.3,21.4,9.6c5.2,5.8,7.8,12.7,7.8,20.8
		c0,8-2.7,15-8.2,20.9c-5.4,6-12.4,9-20.9,9c-8.6,0-15.5-3-21-9c-5.5-5.9-8.2-13-8.2-20.9c0-8,2.6-14.9,7.8-20.7
		C111.4,22.9,118.5,19.6,127.1,19.6L127.1,19.6z M127.1,26.9c-6,0-11.1,2.2-15.4,6.8c-4.3,4.5-6.5,10-6.5,16.5c0,4.1,1,7.9,2.9,11.6
		c1.8,3.4,4.6,6.3,7.9,8.2c3.3,1.9,7.1,3,10.9,3c3.9,0,7.6-1,10.9-3c3.4-1.9,6-4.7,7.9-8.2c1.9-3.6,2.9-7.5,2.9-11.6
		c0-6.5-2.2-12-6.5-16.5C138.2,29.2,133.1,26.9,127.1,26.9L127.1,26.9z M227.1,0.1v78.4h-7.3v-9.7c-2.8,3.5-6.4,6.3-10.3,8.4
		c-4,1.9-8.3,2.8-12.6,2.8c-8.1,0-15-2.9-20.7-8.8c-5.7-5.8-8.7-12.9-8.7-21.3c0-8.1,2.9-15.1,8.7-20.9c5.7-5.8,12.7-8.7,20.9-8.7
		c4.7,0,9,1,12.7,3c3.9,2,7.2,4.9,10,9V0L227.1,0.1L227.1,0.1z M197.8,27.3c-4.2,0-7.9,1.1-11.4,3c-3.5,2-6.3,4.9-8.2,8.5
		c-2,3.4-3,7.4-3.1,11.3c0,4.1,1.1,7.8,3.1,11.4c2,3.5,4.8,6.5,8.3,8.6c3.6,2,7.3,3,11.2,3c4,0,7.8-1,11.5-3
		c3.5-1.9,6.3-4.7,8.3-8.2c1.9-3.4,2.8-7.3,2.8-11.6c0-6.5-2.2-12.1-6.6-16.4C209.5,29.6,204.1,27.3,197.8,27.3L197.8,27.3z
		 M291.5,59.4l6.1,3.4c-1.8,3.6-4.1,6.9-7,9.7c-2.6,2.4-5.6,4.3-8.9,5.7c-3.6,1.3-7.3,1.9-11.2,1.9c-9.2,0-16.4-3.1-21.6-9.2
		c-5.2-6.1-7.8-13-7.8-20.8c0-7.4,2.1-13.8,6.6-19.4c5.6-7.3,13.1-10.9,22.4-10.9c9.5,0,17.2,3.7,23,11.1c4.1,5.3,6.2,11.7,6.2,19.6
		h-50.7c0.2,6.6,2.2,12.1,6.3,16.4c4.1,4.2,9.1,6.4,15,6.4c2.9,0,5.6-0.5,8.3-1.5c2.5-0.9,4.8-2.3,6.9-4
		C287.3,65.9,289.3,63.2,291.5,59.4L291.5,59.4z M291.5,43.9c-1-3.9-2.4-7-4.2-9.4c-1.9-2.4-4.5-4.3-7.3-5.6c-3-1.4-6.3-2.2-9.6-2.2
		c-5.6,0-10.3,1.8-14.3,5.4c-2.9,2.6-5.1,6.5-6.6,11.8L291.5,43.9L291.5,43.9z M309.5,21.2h7.7v8.4c2.3-3.3,4.8-5.7,7.3-7.4
		c2.6-1.6,5.2-2.5,8-2.5c2.2,0,4.4,0.7,6.8,1.9l-4,6.2c-1.6-0.7-2.9-1-4-1c-2.5,0-5,1-7.3,3c-2.4,2-4.1,5.2-5.4,9.4
		c-1,3.3-1.5,9.9-1.5,19.8v19.4h-7.7V21.2z M347.7,21.2h7.3v10.3c2.9-3.9,6.2-6.9,9.8-8.8c3.5-1.9,7.5-3,11.6-3
		c4.3,0,8.1,1.1,11.4,3.3c3.2,2.2,5.8,5.2,7.3,8.8c1.6,3.7,2.4,9.4,2.4,17.3v29.5h-7.3V51.3c0-6.6-0.3-11-0.9-13.3
		c-0.8-3.8-2.4-6.6-4.9-8.5c-2.3-1.9-5.5-2.9-9.4-2.9c-4.4,0-8.4,1.4-11.9,4.4c-3.5,3-5.8,6.6-6.9,10.9c-0.7,2.9-1.1,8.2-1.1,15.6
		v21.1h-7.3V21.2z M468.3,21.2v57.4h-7v-9.8c-3,3.7-6.4,6.6-10.1,8.5c-3.8,1.9-8.1,2.9-12.4,2.9c-7.9,0-14.7-3-20.2-8.9
		c-5.6-5.8-8.4-12.9-8.4-21.4c0-8.1,2.8-15.3,8.5-21.2c5.7-5.8,12.5-8.8,20.4-8.8c4.6,0,8.7,1,12.4,3c3.7,2,7,5,9.8,9V21.3h7V21.2z
		 M439.7,26.8c-4,0-7.7,1-11.2,3c-3.4,2.1-6,4.9-8.1,8.6c-1.9,3.5-3,7.5-3,11.5c0,4.1,1.1,8,3,11.6c1.9,3.5,4.7,6.5,8.2,8.6
		c3.5,2,7,3.1,11,3.1c3.9,0,7.7-1,11.2-3.1c3.5-2,6.1-4.8,8.2-8.2c1.9-3.5,2.7-7.4,2.7-11.7c0-6.6-2.1-12.2-6.3-16.6
		C451.1,29,445.9,26.8,439.7,26.8L439.7,26.8z M480.4,21.1c0.8,0,1.7,0.2,2.4,0.5c0.8,0.4,1.5,1.1,1.8,1.8c0.5,0.8,0.7,1.6,0.7,2.6
		c0,0.9-0.2,1.7-0.6,2.5c-0.5,0.7-1.1,1.4-1.9,1.9c-0.9,0.4-1.6,0.6-2.5,0.6c-0.8,0-1.7-0.2-2.4-0.6c-0.7-0.5-1.4-1.1-1.9-1.9
		c-0.4-0.8-0.6-1.6-0.6-2.5c0-1,0.2-1.8,0.6-2.6c0.5-0.7,1.1-1.5,1.9-1.8C478.8,21.3,479.6,21.1,480.4,21.1L480.4,21.1z M480.4,21.7
		c-0.7,0-1.4,0.2-2,0.6c-0.7,0.3-1.2,0.8-1.5,1.5c-0.4,0.7-0.6,1.4-0.6,2.2c0,0.7,0.2,1.4,0.6,2c0.3,0.7,0.8,1.2,1.5,1.5
		c0.6,0.4,1.3,0.6,2,0.6c0.8,0,1.5-0.2,2.1-0.6c0.7-0.3,1.2-0.8,1.5-1.5c0.3-0.7,0.6-1.4,0.6-2c0-0.7-0.3-1.5-0.6-2.2
		c-0.4-0.7-0.9-1.2-1.5-1.5C481.9,21.9,481.1,21.7,480.4,21.7L480.4,21.7z M478.3,28.7v-5.4h1.8c0.7,0,1.1,0,1.5,0.1
		c0.2,0.2,0.5,0.3,0.6,0.5c0.2,0.2,0.2,0.5,0.3,0.7c0,0.4-0.1,0.7-0.4,1c-0.4,0.3-0.8,0.4-1.2,0.5c0.3,0.1,0.3,0.2,0.5,0.2
		c0.2,0.2,0.4,0.6,0.7,1.1l0.7,1h-1.1l-0.4-0.8c-0.4-0.6-0.7-1.1-0.9-1.3c-0.2-0.1-0.4-0.2-0.7-0.2h-0.5v2.3H478.3z M479.1,25.6h1.1
		c0.5,0,0.9,0,1.1-0.2c0.2-0.2,0.3-0.3,0.3-0.6c0-0.1-0.1-0.3-0.2-0.4c-0.1-0.1-0.2-0.3-0.3-0.3c-0.2,0-0.5-0.1-1-0.1h-0.9
		L479.1,25.6L479.1,25.6z M479.1,25.6">
  </path>
 </g>
</svg>