<svg version="1.1" id="Layer_1" xmlns:x="ns_extend;" xmlns:i="ns_ai;" xmlns:graph="ns_graphs;" xmlns="http://www.w3.org/2000/svg" xmlns:xlink="http://www.w3.org/1999/xlink" x="0px" y="0px" viewBox="0 0 141.7 100" style="enable-background:new 0 0 141.7 100;" xml:space="preserve">
 <style type="text/css">
  .st0{fill:#001965;}
 </style>
 <metadata>
  <sfw xmlns="ns_sfw;">
   <slices>
   </slices>
   <sliceSourceBounds bottomLeftOrigin="true" height="100" width="141.7" x="485.8" y="-9.7">
   </sliceSourceBounds>
  </sfw>
 </metadata>
 <g>
  <g>
   <path class="st0" d="M68.7,99.1v-9.3c0-1.6,0-4.4-5.5-4.4c-2.1,0-3.5,0.4-4.2,0.6c-0.9,0.3-1.2,0.6-1.2,1.1v12
			c0,0.5,0.1,0.5,0.5,0.5h1.3c0.4,0,0.6-0.1,0.6-0.5V88c0-0.6,1-1.2,2.9-1.2c3.2,0,3.2,2,3.2,3.3v9c0,0.5,0.2,0.5,0.6,0.5h1.5
			C68.7,99.5,68.7,99.3,68.7,99.1">
   </path>
   <path class="st0" d="M83.1,92.7c0-3.2-1-5.3-2.6-6.3c-1-0.7-2.3-1-3.5-1c-1.2,0-2.5,0.3-3.5,1c-1.6,1-2.6,3.1-2.6,6.3
			c0,3.2,1,5.3,2.6,6.3c1,0.7,2.3,1,3.5,1c1.2,0,2.5-0.3,3.5-1C82,97.9,83.1,95.9,83.1,92.7 M80.6,92.7c0,2.5-0.5,4.2-1.3,4.9
			c-0.7,0.7-1.4,0.9-2.4,0.9c-0.9,0-1.6-0.2-2.3-0.9c-0.8-0.7-1.3-2.3-1.3-4.9c0-2.6,0.5-4.2,1.3-4.9c0.7-0.7,1.4-0.9,2.3-0.9
			c0.9,0,1.6,0.2,2.4,0.9C80,88.5,80.6,90.1,80.6,92.7">
   </path>
   <path class="st0" d="M92.7,86.7c0-1-1.7-1.4-3.5-1.4c-1.5,0-2.4,0.2-3.1,0.4c-0.9,0.2-1.2,0.6-1.2,1.1v12.3c0,0.4,0.2,0.5,0.5,0.5
			h1.4c0.3,0,0.5,0,0.5-0.5V87.9c0-0.7,0.6-1.2,1.4-1.2c1.7,0,2,1.3,2.9,1.3C92.2,87.9,92.7,87.5,92.7,86.7">
   </path>
   <path class="st0" d="M104.6,98.1V81.2c0-0.5-0.1-0.5-0.5-0.5h-1.3c-0.5,0-0.5,0.2-0.5,0.6v4.9c-0.8-0.4-1.7-0.7-3-0.7
			c-4.2,0-6.4,4-6.4,7.3c0,4.9,2.7,7.3,6.8,7.3C101.8,100,104.6,99,104.6,98.1 M102.2,97.3c0,0.7-1.1,1.1-2.4,1.1
			c-2.6,0-4.5-2.2-4.5-5.9c0-3.3,1.8-5.4,4.3-5.4c1.4,0,2.1,0.4,2.6,0.9V97.3z">
   </path>
   <path class="st0" d="M110.5,81.8c0-0.8-0.7-1.3-1.4-1.3c-0.9,0-1.5,0.6-1.5,1.4c0,0.8,0.5,1.4,1.5,1.4
			C109.9,83.3,110.5,82.5,110.5,81.8 M110.2,99.1V86.2c0-0.4-0.1-0.5-0.5-0.5h-1.4c-0.5,0-0.5,0.2-0.5,0.5v12.9c0,0.4,0,0.5,0.4,0.5
			h1.5C110.1,99.6,110.2,99.6,110.2,99.1">
   </path>
   <path class="st0" d="M134.2,99.3c0-0.1-0.1-0.2-0.2-0.4l-5.1-6.7l0,0c1.8-1.3,3.7-3.4,4.8-5.7c0.1-0.3,0.2-0.4,0.2-0.5
			c0-0.2-0.1-0.3-0.5-0.3h-1.3c-0.5,0-0.7,0-0.8,0.4c-0.8,2.3-2.8,4.8-4.8,6c-0.1,0.1-0.1,0.1-0.1,0.2c0,0.1,0,0.1,0.1,0.1l4.8,6.9
			c0.3,0.4,0.4,0.4,0.8,0.4h1.8C133.9,99.6,134.2,99.6,134.2,99.3 M126,99.2V81c0-0.4-0.2-0.4-0.5-0.4H124c-0.3,0-0.5,0.1-0.5,0.4
			v18.1c0,0.4,0.1,0.4,0.5,0.4h1.4C125.8,99.6,126,99.6,126,99.2">
   </path>
   <path class="st0" d="M121.6,95.8c0-4.5-6.7-3.8-6.7-6.8c0-1,0.8-2.1,2.3-2.1c1.6,0,2,1,2.8,1c0.4,0,1-0.2,1-0.9
			c0-1-1.8-1.6-3.6-1.6c-2.5,0-4.6,1.3-4.6,3.8c0,2.3,1.6,3.3,3.6,4.1c1.6,0.7,3,1.2,3,2.7c0,1.1-0.9,2.4-2.8,2.4
			c-1.9,0-2.4-1.4-3.4-1.4c-0.5,0-1,0.2-1,0.9c0,1.1,2.2,2.1,4.4,2.1C119.1,100,121.6,98.7,121.6,95.8">
   </path>
   <path class="st0" d="M10.9,99.1v-9.3c0-1.6,0-4.4-5.5-4.4c-2.1,0-3.5,0.4-4.2,0.6C0.3,86.3,0,86.6,0,87.1v12
			c0,0.5,0.1,0.5,0.5,0.5h1.3c0.4,0,0.6-0.1,0.6-0.5V88c0-0.6,1-1.2,2.9-1.2c3.2,0,3.2,2,3.2,3.3v9c0,0.5,0.2,0.5,0.6,0.5h1.5
			C10.9,99.5,10.9,99.3,10.9,99.1">
   </path>
   <path class="st0" d="M25.2,92.7c0-3.2-1-5.3-2.6-6.3c-1-0.7-2.3-1-3.5-1c-1.2,0-2.5,0.3-3.5,1c-1.6,1-2.6,3.1-2.6,6.3
			c0,3.2,1,5.3,2.6,6.3c1,0.7,2.3,1,3.5,1c1.2,0,2.5-0.3,3.5-1C24.2,97.9,25.2,95.9,25.2,92.7 M22.7,92.7c0,2.5-0.5,4.2-1.3,4.9
			c-0.7,0.7-1.4,0.9-2.4,0.9c-0.9,0-1.6-0.2-2.4-0.9c-0.8-0.7-1.3-2.3-1.3-4.9c0-2.6,0.5-4.2,1.3-4.9c0.7-0.7,1.4-0.9,2.4-0.9
			c1,0,1.6,0.2,2.4,0.9C22.2,88.5,22.7,90.1,22.7,92.7">
   </path>
   <path class="st0" d="M49.9,92.7c0-3.2-1-5.3-2.6-6.3c-1-0.7-2.3-1-3.5-1c-1.2,0-2.5,0.3-3.5,1c-1.6,1-2.6,3.1-2.6,6.3
			c0,3.2,1,5.3,2.6,6.3c1,0.7,2.3,1,3.5,1c1.2,0,2.5-0.3,3.5-1C48.9,97.9,49.9,95.9,49.9,92.7 M47.4,92.7c0,2.5-0.5,4.2-1.3,4.9
			c-0.7,0.7-1.4,0.9-2.4,0.9c-0.9,0-1.6-0.2-2.4-0.9c-0.8-0.7-1.3-2.3-1.3-4.9c0-2.6,0.5-4.2,1.3-4.9c0.7-0.7,1.4-0.9,2.4-0.9
			c0.9,0,1.6,0.2,2.4,0.9C46.9,88.5,47.4,90.1,47.4,92.7">
   </path>
   <path class="st0" d="M37.5,85.9c0-0.3-0.2-0.3-0.4-0.3h-1.4c-0.2,0-0.2,0.1-0.3,0.4l-3.5,10.2l-3.7-10.2c-0.1-0.4-0.2-0.4-0.6-0.4
			H26c-0.1,0-0.4,0-0.4,0.3c0,0.1,0,0.2,0.1,0.4l4.9,12.8c0.1,0.3,0.2,0.4,0.4,0.4h1.1c0.3,0,0.4,0,0.5-0.4l4.7-12.8
			C37.5,86,37.5,86,37.5,85.9">
   </path>
   <path class="st0" d="M136.3,76.5h0.9c0.5,0,1.2,0,1.2,0.7c0,0.7-0.8,0.7-1.1,0.7h-0.9V76.5z M135.5,80.5h0.8v-2h0.4
			c0.6,0,0.8,0.2,1.4,1.2l0.4,0.7h0.9l-0.6-0.9c-0.6-0.9-0.8-1.1-1.1-1.2v0c1-0.1,1.3-0.8,1.3-1.3c0-0.4-0.2-0.7-0.4-0.9
			c-0.4-0.3-1-0.3-1.5-0.3h-1.6V80.5z M137.4,73.9c-2.4,0-4.3,1.9-4.3,4.3c0,2.4,1.9,4.3,4.3,4.3c2.4,0,4.3-1.9,4.3-4.3
			C141.7,75.8,139.8,73.9,137.4,73.9 M137.4,74.6c2,0,3.6,1.6,3.6,3.6c0,2-1.6,3.6-3.6,3.6c-2,0-3.6-1.6-3.6-3.6
			C133.7,76.2,135.4,74.6,137.4,74.6">
   </path>
   <path class="st0" d="M35,31.3c1.1,1.6,3.3-1,3.2-1.5C38,29.3,33.9,29.8,35,31.3">
   </path>
   <path class="st0" d="M43.9,21.2c5.9,0,10.6-4.7,10.6-10.6C54.5,4.7,49.7,0,43.9,0S33.2,4.7,33.2,10.6C33.2,16.4,38,21.2,43.9,21.2
			 M44.1,2.5c3.9,0,7.1,3.1,7.1,7c0,3.9-3.2,7-7.1,7c-3.9,0-7.1-3.1-7.1-7C37.1,5.6,40.2,2.5,44.1,2.5">
   </path>
   <path class="st0" d="M97.3,39.9c-1.4-6.7-7.3-6.9-10.4-6.7c-3.2,0.2-9.3,1.2-15.5,1.2c-8.4,0-17.9-2.4-25.1-5.7
			c-1.3-0.6-0.6-0.8-0.1-1.1c2.7-1.5,5.1-2.8,6.5-5.2c1.1-1.8,0.7-2.4-0.5-1.4c-3.3,2.7-8,4.2-13.2,2.4c-5.2-1.9-7.3-6.9-7.7-8.1
			c-0.5-1.3-1.1-1.4-1.1,0.5c0,4.7,2.1,7.5,2.8,8.3c0.7,0.8,1,1.6,0.6,2.1c-1,1.2-2.1,2.6-2.2,3.1c0,0.6,0,0.9-0.2,1.5
			c-0.2,0.7-1.1,1.6-2.4,3.2c-0.7,0.9-0.3,1.9,0.3,2.6c0.7,0.8,1.2,1.8,2.1,2.2c0.9,0.4,1.8,0.1,2.8,0.3c1,0.2,2.4,0.8,3.4,2.6
			c1.5,2.7,3.1,6.8,6,10.3c1.3,1.5,1.3,4.3,1.3,5.2c0.1,8-4.2,15.7-6.9,20.5c-0.6,1.1-0.5,2.1,0.4,2.1c1,0,4.7,0,5.3,0
			c0.7,0,1.1-0.7,1.1-1.5c0.4-6.6,4.2-18.7,7-20.7c4.8,2.9,9.5,9.3,7.2,20.3c-0.1,0.6-0.7,1.9,0.7,1.9h4.6c0.6,0,1.5-0.2,1.5-1.3
			c-0.2-4.3-3.9-13.4-4.8-18.8c-0.6-3.4,2.1-9.4,12.4-4.8c4-3.5,9.1-1.4,6.9,5.4c-2.2,6.7-4.1,9.7-11.5,17.6
			c-0.9,0.9-0.9,1.9,0.4,1.9c0.7,0,4.1,0,4.8,0c1,0,1.4-0.3,1.8-1.1C75.9,77.8,79.3,67,86,62c0.5-0.4,1-2.1,2-6
			c3.3,4.2,3.7,11.9-1.9,21.9c-0.6,1-0.2,1.8,0.4,1.8h4.3c0.8,0,1-0.4,1.4-1.6c0.4-1.5,0.5-2.2,1-3.6c0.3-0.9,0.5-1,3.9-1
			c1.1,0,1-0.6,1-1.5C98.2,58.5,98.3,44.6,97.3,39.9 M85.1,35.4c1.1,2,1.2,3.2,0.9,4.3c-0.3,1-1.8,1.6-2.1,1.5
			c0-2.2-0.6-3.9-1.7-5.4C83.2,35.7,84.1,35.5,85.1,35.4 M76.2,36.5c0.7,2.4,0.6,5.6-0.3,6.5c-1.4,1.5-8,1.2-9.9,0.9
			c-0.5-0.1-1-0.2-1.3-1.5c-0.3-1.6-0.4-4.4-0.4-6.3C68.2,36.6,72.2,36.8,76.2,36.5 M52.9,41.1c0.5-1.8,1.1-4.7,1.4-7.1
			c1.3,0.4,2.6,0.7,3.8,1c-0.9,5.5-2.6,7.1-3.5,7.4C53.9,42.7,52.3,42.9,52.9,41.1 M41.2,44c-1.1-1.5-2.6-5-3.8-6
			c-2.4-1.9-4.5-0.4-5.5-1.5c-1-1.2-1.4-1.3-0.5-2.4c0,0,1.1-1.4,1.5-2c0.4-0.6,0.4-1.7,0.5-2.2c0.2-0.5,1.3-1.9,2.4-2.9
			c1.2-1,2.2-0.6,5.9,1.7c4.6,2.7,6,2.2,4.4,4.6C45.2,34.8,41.9,38.9,41.2,44 M91.5,42.3c-0.3,4.1-1.2,10-2.6,10.6
			c-1.4,0.6-3.6-3.2-15.2-3.4c-8.2-0.1-14.6,0.9-15.7,8.4c-0.1,0.5-0.4,0.4-0.6,0.2c-2.3-2.4-4.3-3.5-7.7-5.5
			c-3.3-1.9-5.6-4.6-6-7.2c-0.4-2.6,0.5-6.1,5.2-12.4c0.7-0.9,0.8-0.8,3.4,0.2c-0.2,4.2-1.2,6.6-1.7,8.8c-0.4,2.2,2,2.7,4.2,2.2
			c2.2-0.5,4.3-2.8,5.2-8.9c0.9,0.2,1.5,0.3,2.4,0.4c0.1,6.3,0.5,7.8,0.8,8.4c0.5,1.2,1.7,1.6,2.7,1.6c5,0.4,9.9,0.2,11.6-1.5
			c1.7-1.7,1.1-5.8,0.7-8c0.8-0.1,1.5-0.1,2.2-0.2c1.6,1.9,1.9,4,1.9,5.3c0,1.5,1.6,2.2,3.9,0.7c2.3-1.6,2-4.3,0.8-6.8
			C92,34.8,91.7,38.2,91.5,42.3 M95.3,62.6c-0.1,0.6-0.7,1.1-0.8-0.2c-0.2-1.6-1-5.3-1.3-6.8c-0.3-1.4,0.5-5.8,0.8-9.5
			c0-0.3,0.4-0.3,0.6-0.1C96.2,47.7,95.6,60.1,95.3,62.6">
   </path>
  </g>
 </g>
</svg>