<svg width="794" height="242" viewBox="0 0 794 242" fill="none" xmlns="http://www.w3.org/2000/svg">
<path d="M94.19 233.04H7.08997L50.52 157.73H137.62" fill="white"/>
<path d="M181.05 233.04H267.92L224.49 157.73H137.62" fill="white"/>
<path d="M181.05 82.4001L137.62 7.09009L94.1899 82.3901L137.62 157.73" fill="white"/>
<path d="M307 200.96H341.93V188.36H306.99V172.81H346.29V160.17H292.29V233.04H347.21V220.4H306.99" fill="white"/>
<path d="M306.07 93.8599L321.47 148.03H335.72L351.12 93.8599V148.03H364.91V75.1799H343.76L328.6 126.31L313.43 75.1799H292.28V148.03H306.08" fill="white"/>
<path d="M626.66 148.03H641.37V75.1799H626.67V148.03H626.66Z" fill="white"/>
<path d="M638.61 233.04H653.32V160.17H638.62V233.04H638.61Z" fill="white"/>
<path d="M771.9 148.03H786.61V75.1799H771.91V148.03H771.9Z" fill="white"/>
<path d="M370.65 148.03H385.35V75.1799H370.65V148.03Z" fill="white"/>
<path d="M751.45 103.59H722.27V75.1799H707.79V148.03H722.27V116.2H751.45V148.03H765.7V75.1799H751.45" fill="white"/>
<path d="M407.2 148.03H422.13V87.7699H439.83V75.1799H389.27V87.7799H407.19" fill="white"/>
<path d="M540.94 233.04H555.88V172.81H573.81V160.17H523.25V172.81H540.95" fill="white"/>
<path d="M531.06 150.05C549.68 150.05 560.02 141.55 560.02 125.25V75.1899H545.32V126.62C545.32 132.9 540.02 138.12 531.06 138.12C519.8 138.12 516.58 131.93 516.58 126.62V75.1799H502.33V125.26C502.33 142.79 513.13 150.06 531.06 150.06" fill="white"/>
<path d="M420.06 200.96H454.76V188.36H420.06V172.81H459.13V160.17H405.35V233.04H460.28V220.4H420.06" fill="white"/>
<path d="M598.17 86.7399C602.07 86.7399 606.67 90.4599 606.67 95.3599C606.683 96.5899 606.446 97.8098 605.975 98.9458C605.503 100.082 604.806 101.11 603.925 101.969C603.045 102.828 601.999 103.5 600.852 103.943C599.705 104.387 598.479 104.593 597.25 104.55H579.78V86.7399H598.17ZM597.02 137H579.78V115.88H596.78C602.99 115.88 608.05 119.4 608.05 126.48C608.05 132.45 603.45 137 597.02 137ZM580.24 148.03H601.39C615.17 148.03 623.22 139.83 623.22 128.33C623.22 119.08 616.55 111.13 609.2 109.28C615.63 107.68 620.69 101.13 620.69 93.0799C620.69 82.3499 612.88 75.1799 598.17 75.1799H565.3V148.03" fill="white"/>
<path d="M592.2 192.52V172.7H609.89C615.86 172.7 619.77 176.9 619.77 182.65C619.77 186.72 616.32 192.53 610.35 192.53H592.19L592.2 192.52ZM621.38 198.06C627.58 196.18 634.25 190.56 634.25 180.46C634.25 167.5 625.51 160.07 610.58 160.07H577.25V232.92H592.19V204.22H604.6C612.19 204.22 616.32 208.15 617.47 213.34C618.85 219.07 618.62 227.59 620 232.92H634.94C633.56 227.34 632.64 219.76 632.18 213.78C631.72 203.92 626.43 199.97 621.38 198.06Z" fill="white"/>
<path d="M366.74 160.17H352.04V233.04H400.99V220.4H366.74" fill="white"/>
<path d="M464.65 117.24C476.37 119.28 483.03 121.49 483.03 128.54C483.03 133.3 478.43 137.85 468.55 137.85C458.67 137.85 453.61 132.29 453.61 125.65H439.6C439.6 138.33 447.88 149.89 469.25 149.89C489.47 149.89 498.44 139.12 498.44 126.82C498.44 115.32 490.85 108.04 477.52 105.38C464.42 102.85 455.69 102.32 455.69 94.12C455.69 88.49 460.75 85.13 468.79 85.13C477.06 85.13 481.89 89.29 481.89 96.28H496.14C496.14 84.78 487.41 72.95 468.1 72.95C454.77 72.95 440.98 80.65 440.98 95.05C440.98 107.15 449.72 114.64 464.66 117.24" fill="white"/>
<path d="M669.87 117.24C681.82 119.28 688.48 121.49 688.48 128.54C688.48 133.3 683.66 137.85 674.01 137.85C664.12 137.85 659.07 132.29 659.07 125.65H645.05C645.05 138.33 653.09 149.89 674.7 149.89C694.92 149.89 703.88 139.12 703.88 126.82C703.88 115.32 696.3 108.04 682.74 105.38C669.87 102.85 660.91 102.32 660.91 94.12C660.91 88.49 666.19 85.13 674.01 85.13C682.51 85.13 687.33 89.29 687.33 96.28H701.58C701.58 84.78 692.85 72.95 673.55 72.95C660.22 72.95 646.2 80.65 646.2 95.05C646.2 107.15 655.16 114.64 669.87 117.24Z" fill="white"/>
<path d="M493.37 221.78C481.65 221.78 474.76 210.15 474.76 196.29C474.76 182.43 481.42 170.81 493.37 170.81C502.57 170.81 507.17 176.39 509 183.26H524.4C521.87 168.99 510.84 158.42 493.14 158.42C470.85 158.42 459.36 175.47 459.36 196.48C459.36 217.55 471.31 234.6 493.14 234.6C510.61 234.6 522.33 224.45 524.4 208.86H509C507.16 216.19 502.33 221.78 493.37 221.78Z" fill="white"/>
<path d="M691.01 221.78C679.06 221.78 672.17 210.15 672.17 196.29C672.17 182.43 678.83 170.81 691.01 170.81C699.97 170.81 704.57 176.39 706.64 183.26H721.81C719.28 168.99 708.25 158.42 690.55 158.42C668.26 158.42 657 175.47 657 196.48C657 217.55 668.72 234.6 690.55 234.6C708.02 234.6 719.74 224.45 722.04 208.86H706.64C704.57 216.19 699.74 221.78 691.01 221.78Z" fill="white"/>
</svg>
